<mxfile host="app.diagrams.net" modified="2021-05-28T09:19:08.089Z" agent="5.0 (Windows NT 10.0; Win64; x64) AppleWebKit/537.36 (KHTML, like Gecko) Chrome/90.0.4430.212 Safari/537.36" etag="dFMhP_9N9kT_Sz1Pe1d_" version="14.7.1" type="github">
  <diagram id="ZkhG5WoH8jYEXuMf8S9-" name="Page-1">
    <mxGraphModel dx="920" dy="447" grid="1" gridSize="10" guides="1" tooltips="1" connect="1" arrows="1" fold="1" page="1" pageScale="1" pageWidth="850" pageHeight="1100" math="0" shadow="0">
      <root>
        <mxCell id="0" />
        <mxCell id="1" parent="0" />
        <mxCell id="iesjlVvMZI5J3dzhMwtf-1" value="website for camera access based on apache - will have login access" style="rounded=0;whiteSpace=wrap;html=1;" vertex="1" parent="1">
          <mxGeometry x="10" y="10" width="230" height="90" as="geometry" />
        </mxCell>
        <mxCell id="iesjlVvMZI5J3dzhMwtf-2" value="create the html code to design&lt;br&gt;the website" style="rhombus;whiteSpace=wrap;html=1;" vertex="1" parent="1">
          <mxGeometry x="10" y="130" width="210" height="110" as="geometry" />
        </mxCell>
        <mxCell id="iesjlVvMZI5J3dzhMwtf-3" value="" style="endArrow=classic;html=1;exitX=1;exitY=0.5;exitDx=0;exitDy=0;" edge="1" parent="1" source="iesjlVvMZI5J3dzhMwtf-2">
          <mxGeometry width="50" height="50" relative="1" as="geometry">
            <mxPoint x="380" y="220" as="sourcePoint" />
            <mxPoint x="310" y="185" as="targetPoint" />
          </mxGeometry>
        </mxCell>
        <mxCell id="iesjlVvMZI5J3dzhMwtf-6" style="edgeStyle=orthogonalEdgeStyle;rounded=0;orthogonalLoop=1;jettySize=auto;html=1;" edge="1" parent="1" source="iesjlVvMZI5J3dzhMwtf-4" target="iesjlVvMZI5J3dzhMwtf-7">
          <mxGeometry relative="1" as="geometry">
            <mxPoint x="560" y="186" as="targetPoint" />
          </mxGeometry>
        </mxCell>
        <mxCell id="iesjlVvMZI5J3dzhMwtf-4" value="use selenium to test it on different browsers" style="rhombus;whiteSpace=wrap;html=1;" vertex="1" parent="1">
          <mxGeometry x="340" y="132.5" width="210" height="107.5" as="geometry" />
        </mxCell>
        <mxCell id="iesjlVvMZI5J3dzhMwtf-7" value="create local shared folder" style="rhombus;whiteSpace=wrap;html=1;" vertex="1" parent="1">
          <mxGeometry x="570" y="141.25" width="190" height="90" as="geometry" />
        </mxCell>
        <mxCell id="iesjlVvMZI5J3dzhMwtf-8" value="" style="endArrow=classic;html=1;exitX=0.5;exitY=1;exitDx=0;exitDy=0;" edge="1" parent="1" source="iesjlVvMZI5J3dzhMwtf-7" target="iesjlVvMZI5J3dzhMwtf-9">
          <mxGeometry width="50" height="50" relative="1" as="geometry">
            <mxPoint x="380" y="320" as="sourcePoint" />
            <mxPoint x="140" y="320" as="targetPoint" />
            <Array as="points">
              <mxPoint x="665" y="270" />
              <mxPoint x="140" y="260" />
            </Array>
          </mxGeometry>
        </mxCell>
        <mxCell id="iesjlVvMZI5J3dzhMwtf-9" value="create ubuntu machine + docker,&lt;br&gt;install apache container" style="rhombus;whiteSpace=wrap;html=1;" vertex="1" parent="1">
          <mxGeometry x="30" y="300" width="220" height="90" as="geometry" />
        </mxCell>
        <mxCell id="iesjlVvMZI5J3dzhMwtf-11" value="" style="endArrow=classic;html=1;exitX=1;exitY=0.5;exitDx=0;exitDy=0;" edge="1" parent="1" source="iesjlVvMZI5J3dzhMwtf-9" target="iesjlVvMZI5J3dzhMwtf-12">
          <mxGeometry width="50" height="50" relative="1" as="geometry">
            <mxPoint x="260" y="340" as="sourcePoint" />
            <mxPoint x="320" y="350" as="targetPoint" />
          </mxGeometry>
        </mxCell>
        <mxCell id="iesjlVvMZI5J3dzhMwtf-12" value="upload html code to apache container" style="rhombus;whiteSpace=wrap;html=1;" vertex="1" parent="1">
          <mxGeometry x="290" y="292.5" width="240" height="105" as="geometry" />
        </mxCell>
        <mxCell id="iesjlVvMZI5J3dzhMwtf-15" value="use owasp&lt;br&gt;to check vulnerability" style="ellipse;whiteSpace=wrap;html=1;aspect=fixed;" vertex="1" parent="1">
          <mxGeometry x="240" y="145" width="80" height="80" as="geometry" />
        </mxCell>
        <mxCell id="iesjlVvMZI5J3dzhMwtf-19" value="" style="endArrow=none;html=1;exitX=1;exitY=0.5;exitDx=0;exitDy=0;entryX=0;entryY=0.5;entryDx=0;entryDy=0;" edge="1" parent="1" source="iesjlVvMZI5J3dzhMwtf-15" target="iesjlVvMZI5J3dzhMwtf-4">
          <mxGeometry width="50" height="50" relative="1" as="geometry">
            <mxPoint x="300" y="250" as="sourcePoint" />
            <mxPoint x="350" y="200" as="targetPoint" />
          </mxGeometry>
        </mxCell>
        <mxCell id="iesjlVvMZI5J3dzhMwtf-21" value="" style="endArrow=classic;html=1;" edge="1" parent="1" target="iesjlVvMZI5J3dzhMwtf-22">
          <mxGeometry width="50" height="50" relative="1" as="geometry">
            <mxPoint x="530" y="342.5" as="sourcePoint" />
            <mxPoint x="570" y="343" as="targetPoint" />
          </mxGeometry>
        </mxCell>
        <mxCell id="iesjlVvMZI5J3dzhMwtf-22" value="save image, upload to aws repository" style="rhombus;whiteSpace=wrap;html=1;" vertex="1" parent="1">
          <mxGeometry x="570" y="305" width="200" height="80" as="geometry" />
        </mxCell>
        <mxCell id="iesjlVvMZI5J3dzhMwtf-23" value="" style="endArrow=classic;html=1;exitX=0.5;exitY=1;exitDx=0;exitDy=0;fillColor=#f8cecc;strokeColor=#b85450;" edge="1" parent="1">
          <mxGeometry width="50" height="50" relative="1" as="geometry">
            <mxPoint x="672.5" y="385" as="sourcePoint" />
            <mxPoint x="147.5" y="453.75" as="targetPoint" />
            <Array as="points">
              <mxPoint x="672.5" y="423.75" />
              <mxPoint x="147.5" y="413.75" />
            </Array>
          </mxGeometry>
        </mxCell>
        <mxCell id="iesjlVvMZI5J3dzhMwtf-28" value="build S3 to use as storage for&lt;br&gt;DB and video files" style="rhombus;whiteSpace=wrap;html=1;" vertex="1" parent="1">
          <mxGeometry x="40" y="450" width="220" height="90" as="geometry" />
        </mxCell>
        <mxCell id="iesjlVvMZI5J3dzhMwtf-29" value="use kubernetes as service in aws" style="rhombus;whiteSpace=wrap;html=1;" vertex="1" parent="1">
          <mxGeometry x="300" y="450" width="220" height="90" as="geometry" />
        </mxCell>
        <mxCell id="iesjlVvMZI5J3dzhMwtf-30" value="" style="endArrow=classic;html=1;exitX=1;exitY=0.5;exitDx=0;exitDy=0;" edge="1" parent="1">
          <mxGeometry width="50" height="50" relative="1" as="geometry">
            <mxPoint x="260" y="494.5" as="sourcePoint" />
            <mxPoint x="300" y="494.5" as="targetPoint" />
          </mxGeometry>
        </mxCell>
        <mxCell id="iesjlVvMZI5J3dzhMwtf-31" value="" style="endArrow=classic;html=1;entryX=0.5;entryY=1;entryDx=0;entryDy=0;" edge="1" parent="1" target="iesjlVvMZI5J3dzhMwtf-2">
          <mxGeometry width="50" height="50" relative="1" as="geometry">
            <mxPoint x="670" y="305" as="sourcePoint" />
            <mxPoint x="120" y="250" as="targetPoint" />
            <Array as="points">
              <mxPoint x="670" y="280" />
              <mxPoint x="115" y="280" />
            </Array>
          </mxGeometry>
        </mxCell>
        <mxCell id="iesjlVvMZI5J3dzhMwtf-32" value="POC&lt;br&gt;and version updates" style="ellipse;whiteSpace=wrap;html=1;aspect=fixed;" vertex="1" parent="1">
          <mxGeometry x="280" y="231.25" width="80" height="80" as="geometry" />
        </mxCell>
        <mxCell id="iesjlVvMZI5J3dzhMwtf-35" value="up to production" style="ellipse;whiteSpace=wrap;html=1;" vertex="1" parent="1">
          <mxGeometry x="240" y="380" width="100" height="80" as="geometry" />
        </mxCell>
        <mxCell id="iesjlVvMZI5J3dzhMwtf-36" value="" style="endArrow=classic;html=1;startArrow=none;" edge="1" parent="1" source="iesjlVvMZI5J3dzhMwtf-40">
          <mxGeometry width="50" height="50" relative="1" as="geometry">
            <mxPoint x="520" y="494.5" as="sourcePoint" />
            <mxPoint x="570" y="495" as="targetPoint" />
          </mxGeometry>
        </mxCell>
        <mxCell id="iesjlVvMZI5J3dzhMwtf-37" value="use nginx container to be able to&amp;nbsp;&lt;br&gt;make it scalable" style="rhombus;whiteSpace=wrap;html=1;" vertex="1" parent="1">
          <mxGeometry x="600" y="450" width="210" height="90" as="geometry" />
        </mxCell>
        <mxCell id="iesjlVvMZI5J3dzhMwtf-38" value="" style="endArrow=classic;html=1;exitX=0.5;exitY=1;exitDx=0;exitDy=0;" edge="1" parent="1" source="iesjlVvMZI5J3dzhMwtf-37">
          <mxGeometry width="50" height="50" relative="1" as="geometry">
            <mxPoint x="660" y="590" as="sourcePoint" />
            <mxPoint x="150" y="600" as="targetPoint" />
            <Array as="points">
              <mxPoint x="665" y="580" />
              <mxPoint x="150" y="560" />
            </Array>
          </mxGeometry>
        </mxCell>
        <mxCell id="iesjlVvMZI5J3dzhMwtf-39" value="upload image to kubernetes&lt;br&gt;with count option to scale" style="rhombus;whiteSpace=wrap;html=1;" vertex="1" parent="1">
          <mxGeometry x="40" y="600" width="220" height="90" as="geometry" />
        </mxCell>
        <mxCell id="iesjlVvMZI5J3dzhMwtf-40" value="use IAM&lt;br&gt;and security groups to secure env" style="ellipse;whiteSpace=wrap;html=1;aspect=fixed;" vertex="1" parent="1">
          <mxGeometry x="520" y="450" width="80" height="80" as="geometry" />
        </mxCell>
        <mxCell id="iesjlVvMZI5J3dzhMwtf-42" value="" style="endArrow=classic;html=1;entryX=0;entryY=0.5;entryDx=0;entryDy=0;exitX=1;exitY=0.5;exitDx=0;exitDy=0;" edge="1" parent="1" source="iesjlVvMZI5J3dzhMwtf-39" target="iesjlVvMZI5J3dzhMwtf-43">
          <mxGeometry width="50" height="50" relative="1" as="geometry">
            <mxPoint x="260" y="650" as="sourcePoint" />
            <mxPoint x="310" y="650" as="targetPoint" />
            <Array as="points" />
          </mxGeometry>
        </mxCell>
        <mxCell id="iesjlVvMZI5J3dzhMwtf-43" value="install prometheus to monitor env" style="rhombus;whiteSpace=wrap;html=1;" vertex="1" parent="1">
          <mxGeometry x="310" y="600" width="220" height="90" as="geometry" />
        </mxCell>
      </root>
    </mxGraphModel>
  </diagram>
</mxfile>
